<svg width="96" height="98" viewBox="0 0 96 98" fill="none" xmlns="http://www.w3.org/2000/svg">
<path d="M48.0003 29.1962H45.3147V30.737C45.3147 31.03 45.4339 31.2957 45.6294 31.4911C45.8246 31.6865 46.096 31.8111 46.3891 31.8111H49.6173C49.9102 31.8111 50.1762 31.6863 50.3715 31.4911C50.5669 31.2959 50.6915 31.03 50.6915 30.737V29.1962H48.0003ZM86.4358 64.0239L79.2524 61.5876L74.57 63.8828V66.0476C74.57 67.6753 75.2374 69.1622 76.3171 70.2363C77.3913 71.3105 78.8726 71.9779 80.5057 71.9779C82.1334 71.9779 83.6201 71.3105 84.6944 70.2363C85.7686 69.162 86.436 67.6753 86.436 66.0476V64.0239H86.4358ZM74.5698 60.6978L78.4437 58.8044C78.7909 58.6036 79.2141 58.5493 79.621 58.6905L86.4356 60.9964V58.1532C86.4356 57.4154 86.1319 56.7426 85.6436 56.2543C85.1607 55.766 84.4879 55.4621 83.7498 55.4621H77.2608C76.5231 55.4621 75.8503 55.7658 75.3618 56.2543C74.8734 56.7426 74.5696 57.4154 74.5696 58.1532V60.6978H74.5698ZM9.5646 59.0919H21.4306V55.4621H12.256C11.5181 55.4621 10.8453 55.7658 10.3568 56.2543C9.86855 56.7426 9.5646 57.4154 9.5646 58.1532V59.0919ZM21.4308 61.9676H9.5646V66.0476C9.5646 67.6753 10.232 69.1622 11.3118 70.2363C12.3859 71.3105 13.8674 71.9779 15.5005 71.9779C17.1282 71.9779 18.6149 71.3105 19.689 70.2363C20.7632 69.162 21.4308 67.6753 21.4308 66.0476V61.9676ZM53.936 63.8828C51.9611 64.1542 48.8088 64.0943 46.172 61.7993C45.2443 62.3311 43.8064 62.9116 42.0702 62.7868V66.0476C42.0702 67.6753 42.7374 69.1622 43.8118 70.2363C44.8917 71.3105 46.3728 71.9779 48.0005 71.9779C49.6336 71.9779 51.1149 71.3105 52.1892 70.2363C53.269 69.162 53.9362 67.6753 53.9362 66.0476V63.8828H53.936ZM42.0702 59.9111C43.28 60.0685 44.4901 59.6506 45.407 58.8639C46.0038 58.3431 46.9045 58.4082 47.4253 59.005C49.5252 61.4249 52.4442 61.2783 53.9362 60.9962V58.153C53.9362 57.4152 53.6324 56.7424 53.144 56.2541C52.6557 55.7658 51.9831 55.4619 51.245 55.4619H44.756C44.0181 55.4619 43.3507 55.7656 42.8624 56.2541C42.3739 56.7424 42.0702 57.4152 42.0702 58.153V59.9111ZM24.301 66.0476C24.301 67.8598 23.7474 69.5526 22.798 70.9579C24.7839 71.1478 26.5688 72.043 27.909 73.3779C29.428 74.8971 30.3668 76.9968 30.3668 79.3029V96.5675C30.3668 97.3597 29.7266 98 28.9345 98C19.9767 98 11.0187 98 2.06645 98C1.27422 98 0.628609 97.3597 0.628609 96.5675V91.1852C0.628609 90.3929 1.27422 89.7529 2.06645 89.7529C2.85868 89.7529 3.49894 90.3931 3.49894 91.1852V95.1297H6.26055V81.9831C6.26055 81.1855 6.90616 80.5453 7.69839 80.5453C8.49062 80.5453 9.13623 81.1855 9.13623 81.9831V95.1297H21.8649V81.9831C21.8649 81.1855 22.5052 80.5453 23.3028 80.5453C24.095 80.5453 24.7351 81.1855 24.7351 81.9831V95.1297H27.4969V79.3027C27.4969 77.7888 26.8784 76.4107 25.8801 75.407C24.8763 74.4086 23.4982 73.7902 21.9846 73.7902H19.6839C18.4359 74.463 17.009 74.8481 15.5009 74.8481C13.987 74.8481 12.5655 74.4628 11.3177 73.7902H9.0168C7.49741 73.7902 6.11929 74.4086 5.12091 75.407C4.12273 76.4107 3.49875 77.7888 3.49875 79.3027V84.685C3.49875 85.4772 2.8583 86.1175 2.06626 86.1175C1.27403 86.1175 0.628418 85.4772 0.628418 84.685V79.3027C0.628418 76.9966 1.57263 74.8969 3.09162 73.3777C4.43185 72.0428 6.21691 71.1478 8.20275 70.9577C7.25318 69.5524 6.69427 67.8596 6.69427 66.0474V60.5294V58.1529C6.69427 56.6174 7.31826 55.2285 8.32735 54.2248C9.33644 53.2155 10.7255 52.5915 12.2556 52.5915H22.8681C23.6603 52.5915 24.3004 53.2318 24.3004 54.024V60.5294V66.0476H24.301ZM89.3062 66.0476C89.3062 67.8598 88.7526 69.5526 87.8032 70.9579C89.7889 71.1478 91.5739 72.043 92.914 73.3779C94.4334 74.8971 95.372 76.9968 95.372 79.3029V96.5675C95.372 97.3597 94.7316 98 93.9397 98C84.9819 98 76.0239 98 67.0716 98C66.2794 98 65.6338 97.3597 65.6338 96.5675V91.1852C65.6338 90.3929 66.2794 89.7529 67.0716 89.7529C67.8639 89.7529 68.5039 90.3931 68.5039 91.1852V95.1297H71.2657V81.9831C71.2657 81.1855 71.9114 80.5453 72.7036 80.5453C73.4958 80.5453 74.1414 81.1855 74.1414 81.9831V95.1297H86.8701V81.9831C86.8701 81.1855 87.5104 80.5453 88.308 80.5453C89.1002 80.5453 89.7403 81.1855 89.7403 81.9831V95.1297H92.5019V79.3027C92.5019 77.7888 91.8836 76.4107 90.8851 75.407C89.8813 74.4086 88.5034 73.7902 86.9896 73.7902H84.6889C83.4409 74.463 82.014 74.8481 80.5057 74.8481C78.992 74.8481 77.5705 74.4628 76.3227 73.7902H74.022C72.5026 73.7902 71.1245 74.4086 70.1263 75.407C69.1279 76.4107 68.5039 77.7888 68.5039 79.3027V84.685C68.5039 85.4772 67.8637 86.1175 67.0716 86.1175C66.2796 86.1175 65.6338 85.4772 65.6338 84.685V79.3027C65.6338 76.9966 66.578 74.8969 68.097 73.3777C69.4372 72.0428 71.2223 71.1478 73.2081 70.9577C72.2586 69.5524 71.6997 67.8596 71.6997 66.0474V58.1529C71.6997 56.6174 72.3236 55.2285 73.3327 54.2248C74.3418 53.2155 75.7309 52.5915 77.2608 52.5915H83.7498C85.2799 52.5915 86.669 53.2155 87.6781 54.2248C88.6818 55.2285 89.3058 56.6229 89.3058 58.1529V66.0476H89.3062ZM56.8063 66.0476C56.8063 67.8598 56.2474 69.5526 55.3032 70.9579C57.2837 71.1478 59.0739 72.043 60.4088 73.3779C61.9282 74.8971 62.8722 76.9968 62.8722 79.3029V96.5675C62.8722 97.3597 62.2317 98 61.4342 98C52.4819 98 43.5241 98 34.5663 98C33.774 98 33.134 97.3597 33.134 96.5675V91.1852C33.134 90.3929 33.7742 89.7529 34.5663 89.7529C35.3583 89.7529 36.0041 90.3931 36.0041 91.1852V95.1297H38.7659V81.9831C38.7659 81.1855 39.406 80.5453 40.198 80.5453C40.9958 80.5453 41.6359 81.1855 41.6359 81.9831V95.1297H54.3699V81.9831C54.3699 81.1855 55.0104 80.5453 55.8024 80.5453C56.5944 80.5453 57.2403 81.1855 57.2403 81.9831V95.1297H60.0019V79.3027C60.0019 77.7888 59.3779 76.4107 58.3797 75.407C57.3813 74.4086 56.0034 73.7902 54.4896 73.7902H52.1835C50.9355 74.463 49.5143 74.8481 48.0005 74.8481C46.4922 74.8481 45.0653 74.4628 43.8227 73.7902H41.5168C40.0032 73.7902 38.625 74.4086 37.6267 75.407C36.6229 76.4107 36.0043 77.7888 36.0043 79.3027V84.685C36.0043 85.4772 35.3585 86.1175 34.5665 86.1175C33.7742 86.1175 33.1342 85.4772 33.1342 84.685V79.3027C33.1342 76.9966 34.0726 74.8969 35.592 73.3777C36.9321 72.0428 38.7171 71.1478 40.7029 70.9577C39.7534 69.5524 39.2002 67.8596 39.2002 66.0474V58.1529C39.2002 56.6174 39.8242 55.2285 40.8279 54.2248C41.8368 53.2155 43.2261 52.5915 44.756 52.5915H51.245C52.7749 52.5915 54.1693 53.2155 55.1731 54.2248C56.1824 55.2285 56.8063 56.6174 56.8063 58.1529V66.0476ZM25.9231 37.9857H42.8676C43.4374 37.9857 43.9255 38.3167 44.1588 38.7942C45.4391 41.0134 46.7198 43.2325 48.0001 45.4517C49.2967 43.2 50.599 40.9539 51.8958 38.7075C52.1508 38.2627 52.623 37.9859 53.1329 37.9859H70.1207C70.5439 37.9859 70.9237 38.1704 71.1898 38.4635L78.2593 45.2727L79.0569 38.4309C79.1276 37.8179 79.5724 37.3403 80.1367 37.1992C83.7393 36.0759 86.8592 33.8134 89.0621 30.8401C91.2214 27.9264 92.5019 24.3184 92.5019 20.428C92.5019 15.599 90.5271 11.2151 87.3475 8.03026C84.1625 4.84526 79.7734 2.87033 74.9444 2.87033H21.0562C16.2273 2.87033 11.8433 4.84526 8.65868 8.03026C5.47368 11.2151 3.49894 15.6046 3.49894 20.428C3.49894 24.3184 4.77944 27.9264 6.9387 30.8401C9.15786 33.8351 12.3048 36.1084 15.94 37.2262C16.5477 37.4107 16.884 37.899 16.9546 38.5065L17.7413 45.2726L24.8922 38.3873C25.169 38.1214 25.5487 37.9857 25.9231 37.9857ZM42.043 40.856H26.4549L17.6976 49.293C17.4752 49.5317 17.1661 49.6946 16.8133 49.7325C16.0267 49.8248 15.316 49.2605 15.2291 48.4738L14.2037 39.6624C10.3568 38.2788 7.03096 35.7721 4.63819 32.5438C2.12081 29.142 0.628609 24.9477 0.628609 20.428C0.628609 14.807 2.92931 9.70143 6.62958 6.00116C10.3297 2.30051 15.4352 0 21.0562 0H74.9442C80.5652 0 85.6708 2.30051 89.3764 6.00097C93.0769 9.70123 95.3718 14.807 95.3718 20.4278C95.3718 24.9475 93.8796 29.1416 91.3622 32.5437C88.9695 35.7719 85.649 38.2786 81.8023 39.6622L80.7769 48.452C80.7388 48.7667 80.6087 49.0706 80.3809 49.3038C79.8329 49.8736 78.9268 49.8897 78.3571 49.3417L69.5458 40.8559H53.9576C52.3841 43.5796 50.8163 46.3033 49.2427 49.027C49.1179 49.2385 48.9388 49.4176 48.7164 49.5478C48.0273 49.9438 47.1539 49.7051 46.7633 49.0216C45.1897 46.2979 43.6163 43.5798 42.043 40.856ZM42.4497 27.6496C42.412 26.0165 41.5599 24.7197 40.6702 23.3688C39.4222 21.4752 38.1201 19.5003 38.1201 16.3208C38.1201 13.5918 39.227 11.1228 41.0176 9.33794C42.8025 7.54753 45.2768 6.44063 48.0003 6.44063C50.7296 6.44063 53.1979 7.54753 54.9887 9.33794C56.7736 11.123 57.8805 13.5918 57.8805 16.3208C57.8805 19.5003 56.5782 21.4752 55.3358 23.3688C54.4461 24.7197 53.5942 26.0165 53.5561 27.6496L53.5616 30.737C53.5616 31.8221 53.1166 32.8095 52.4006 33.5204C51.6897 34.2366 50.7022 34.6815 49.6171 34.6815H46.3889C45.3038 34.6815 44.3163 34.2365 43.6001 33.5204C42.884 32.8097 42.4446 31.8221 42.4446 30.737L42.4497 27.6496ZM45.1843 26.3203H50.8216C51.1363 24.5408 52.0262 23.195 52.9485 21.7952C53.9521 20.2649 55.0102 18.659 55.0102 16.3206C55.0102 14.3836 54.2235 12.6311 52.9593 11.3669C51.6897 10.0973 49.9373 9.31057 48.0003 9.31057C46.0688 9.31057 44.3163 10.0973 43.0467 11.367C41.7769 12.6313 40.9958 14.3838 40.9958 16.3208C40.9958 18.6592 42.0482 20.2651 43.0574 21.7954C43.9745 23.1952 44.8643 24.5408 45.1843 26.3203Z" fill="#032C66"/>
</svg>
