<svg width="94" height="94" viewBox="0 0 94 94" fill="none" xmlns="http://www.w3.org/2000/svg">
<path d="M92.623 85.3105H86.9518V63.8282C86.9518 63.0677 86.3353 62.4512 85.5749 62.4512C84.8144 62.4512 84.1979 63.0677 84.1979 63.8282V85.3105H72.1156V37.991H84.1979V57.4024C84.1979 58.1628 84.8144 58.7794 85.5749 58.7794C86.3353 58.7794 86.9518 58.1628 86.9518 57.4024V36.6141C86.9518 35.8536 86.3353 35.2371 85.5749 35.2371H70.7387C69.9782 35.2371 69.3617 35.8536 69.3617 36.6141V85.3105H66.1811V44.0326C66.1811 43.2721 65.5646 42.6556 64.8042 42.6556H49.9674C49.207 42.6556 48.5905 43.2721 48.5905 44.0326V85.3105H45.4097V55.1602C45.4097 54.3997 44.7932 53.7832 44.0328 53.7832H29.196C28.4355 53.7832 27.819 54.3997 27.819 55.1602V85.3105H24.6383V64.0623C24.6383 63.3018 24.0218 62.6853 23.2613 62.6853H8.42438C7.66394 62.6853 7.04743 63.3018 7.04743 64.0623V85.3105H1.37695C0.616508 85.3105 0 85.927 0 86.6874V92.623C0 93.3835 0.616508 94 1.37695 94H16.248C17.0085 94 17.625 93.3835 17.625 92.623C17.625 91.8626 17.0085 91.2461 16.248 91.2461H2.75391V88.0644H91.2461V91.2461H22.6738C21.9134 91.2461 21.2969 91.8626 21.2969 92.623C21.2969 93.3835 21.9134 94 22.6738 94H92.623C93.3835 94 94 93.3835 94 92.623V86.6874C94 85.927 93.3835 85.3105 92.623 85.3105ZM51.3444 45.4095H63.4272V85.3105H51.3444V45.4095ZM30.5728 56.5371H42.6556V85.3105H30.5728V56.5371ZM9.80134 65.4392H21.8842V85.3105H9.80134V65.4392Z" fill="#032C66"/>
<path d="M8.23975 50.2313H29.1951C30.4109 50.2313 31.5785 49.7177 32.3987 48.8227L49.4674 30.2012H61.0945C62.2554 30.2012 63.3465 29.7495 64.1666 28.9294L78.2642 14.8318V19.1817C78.2642 19.9421 78.8807 20.5586 79.6412 20.5586H85.5749C86.3354 20.5586 86.9519 19.9421 86.9519 19.1817V4.34383C86.9519 1.94866 85.0032 0 82.6081 0H67.7719C67.0114 0 66.3949 0.616508 66.3949 1.37695V7.31254C66.3949 8.07298 67.0114 8.68949 67.7719 8.68949H72.1201L59.2961 21.5135H47.5563C46.3419 21.5135 45.1748 22.027 44.3548 22.9219L27.2841 41.5436H23.4872C22.7268 41.5436 22.1103 42.1601 22.1103 42.9205C22.1103 43.681 22.7268 44.2975 23.4872 44.2975H27.8898C28.2757 44.2975 28.644 44.1356 28.9047 43.851L46.3848 24.7828C46.6848 24.4554 47.1117 24.2676 47.5562 24.2676H59.8661C60.2313 24.2676 60.5816 24.1226 60.8397 23.8642L76.4176 8.28632C76.8115 7.89251 76.9293 7.30024 76.7162 6.78581C76.503 6.27119 76.0009 5.93577 75.4441 5.93577H69.1486V2.75391H82.6079C83.4845 2.75391 84.1978 3.46717 84.1978 4.34383V17.8049H81.018V11.5077C81.018 10.9508 80.6825 10.4487 80.1679 10.2355C79.6537 10.0227 79.061 10.1403 78.6674 10.5341L62.2194 26.982C61.9194 27.282 61.5198 27.4473 61.0945 27.4473H48.8617C48.4756 27.4473 48.1075 27.6092 47.8466 27.8938L30.3683 46.962C30.0683 47.2895 29.6407 47.4773 29.1951 47.4773H9.6167V44.2975H17.0614C17.8219 44.2975 18.4384 43.681 18.4384 42.9205C18.4384 42.1601 17.8219 41.5436 17.0614 41.5436H8.23975C7.4793 41.5436 6.86279 42.1601 6.86279 42.9205V48.8543C6.86279 49.6147 7.4793 50.2313 8.23975 50.2313Z" fill="#032C66"/>
</svg>
