<svg width="96" height="96" viewBox="0 0 96 96" fill="none" xmlns="http://www.w3.org/2000/svg">
<path d="M92.9357 3.91052C90.2809 1.25625 86.2969 0.21562 82.6828 1.23938L70.2636 4.75428C66.2323 5.89504 62.5354 8.06406 59.5743 11.0251L59.5419 11.0575C58.8086 11.7886 58.8069 12.9758 59.5382 13.7094C60.2694 14.4429 61.4565 14.4442 62.1898 13.7131L62.2241 13.6788C64.7351 11.1678 67.8683 9.3295 71.2847 8.36256L83.7043 4.84766C86.0231 4.19084 88.5808 4.85891 90.2841 6.56236C92.0025 8.28081 92.659 10.8018 91.9973 13.141L88.4822 25.5606C87.5145 28.9795 85.6751 32.1147 83.1626 34.627L49.6026 68.1864L43.927 62.5109L53.3975 53.0404C56.0096 50.4281 56.0113 46.0605 53.3982 43.4473C50.7537 40.8028 46.4509 40.8029 43.8066 43.4473L34.335 52.9189L28.6595 47.2434L50.6131 25.2898C51.3453 24.5576 51.3453 23.3704 50.6131 22.638C49.8809 21.906 48.6936 21.906 47.9613 22.638L39.6096 30.9897L26.1892 29.1195C21.0514 28.4033 15.7958 30.166 12.1282 33.8335L6.15894 39.8028C5.438 40.5241 5.43781 41.7331 6.15894 42.4546L12.2736 48.5693C14.2847 50.5804 16.9586 51.688 19.8029 51.688C22.0118 51.688 24.1163 51.0173 25.8892 49.7768L31.6829 55.5707L26.8049 60.4488C26.0727 61.181 26.0727 62.3682 26.8049 63.1006L33.7447 70.0404C34.4662 70.7617 35.6747 70.7619 36.3965 70.0404L41.2748 65.1622L47.0688 70.956C45.8282 72.7288 45.1574 74.8333 45.1574 77.0423C45.1574 79.8865 46.2649 82.5605 48.2761 84.5714L54.3909 90.6862C55.112 91.4072 56.3214 91.4073 57.0427 90.6862L63.0118 84.7169C66.6793 81.0494 68.4415 75.793 67.7258 70.6562L65.856 57.2374L85.8146 37.2789C88.779 34.3145 90.9491 30.6156 92.0908 26.5819L95.6059 14.162C96.6366 10.5168 95.6136 6.5888 92.9357 3.91052ZM14.9254 45.9174L10.1364 41.1286L14.7799 36.4852C17.6207 33.6443 21.6917 32.2784 25.6715 32.8336L36.2855 34.3128L24.6807 45.9176C23.3779 47.2206 21.6456 47.9379 19.803 47.9379C17.9605 47.9379 16.2283 47.2206 14.9254 45.9174ZM35.0707 66.0626L30.7826 61.7746L35.6469 56.9104C35.6516 56.9058 35.6569 56.902 35.6615 56.8973L46.4592 46.0995C47.6412 44.9179 49.5642 44.9177 50.7457 46.0995C51.9087 47.2624 51.9121 49.2216 50.7464 50.3871L35.0707 66.0626ZM64.0116 71.1737C64.566 75.1528 63.201 79.2244 60.36 82.0653L55.7167 86.7087L50.9277 81.9198C49.625 80.617 48.9074 78.8847 48.9074 77.0423C48.9074 75.2022 49.6233 73.4721 50.9228 72.1699C50.9247 72.168 50.927 72.1663 50.9288 72.1644L62.5326 60.5607L64.0116 71.1737Z" fill="#002964"/>
<path d="M69.332 35.9293C71.5802 35.9293 73.6937 35.0539 75.2833 33.4644C78.5647 30.1826 78.5645 24.8433 75.2833 21.5619C72.0394 18.3182 66.6249 18.318 63.381 21.5619C60.1367 24.8062 60.1367 30.2201 63.381 33.4644C64.9704 35.0539 67.0839 35.9293 69.332 35.9293ZM66.0324 24.2135C67.8311 22.4148 70.8328 22.4148 72.6315 24.2135C74.451 26.0328 74.4508 28.9933 72.6315 30.8126C70.8326 32.6115 67.8317 32.6117 66.0324 30.8126C64.2336 29.0139 64.2332 26.0124 66.0324 24.2135Z" fill="#002964"/>
<path d="M19.332 61.0926C20.0642 60.3605 20.0642 59.1732 19.332 58.4408C18.5998 57.709 17.4126 57.7088 16.6804 58.4408L0.549385 74.5718C-0.182803 75.304 -0.182803 76.4913 0.549385 77.2236C1.27182 77.9457 2.47857 77.9461 3.20101 77.2236L19.332 61.0926Z" fill="#002964"/>
<path d="M23.8243 73.551C23.0921 72.819 21.9049 72.819 21.1725 73.551L2.76862 91.9549C2.03644 92.6871 2.03644 93.8743 2.76862 94.6067C3.49106 95.3289 4.698 95.3289 5.42044 94.6067L23.8243 76.2028C24.5565 75.4706 24.5565 74.2834 23.8243 73.551Z" fill="#002964"/>
<path d="M37.9231 74.1703L28.8055 83.2879C28.0733 84.0201 28.0733 85.2073 28.8055 85.9397C29.1717 86.3057 29.6515 86.4889 30.1313 86.4889C30.6111 86.4889 31.0911 86.3057 31.4571 85.9397L40.5747 76.8221C41.3069 76.0899 41.3071 74.9027 40.5747 74.1703C39.8425 73.4385 38.6552 73.4385 37.9231 74.1703Z" fill="#002964"/>
<path d="M25.611 90.495C25.218 89.5524 24.1073 89.0887 23.1623 89.4806C22.2197 89.8715 21.7564 90.9866 22.1479 91.9295C22.5392 92.8725 23.653 93.3356 24.5967 92.9439C25.5392 92.5526 26.0038 91.4388 25.611 90.495Z" fill="#002964"/>
<path d="M53.2657 18.9723C53.9 20.4961 56.1494 20.4779 56.7453 18.9292C57.0314 18.1857 56.807 17.3094 56.186 16.8054C55.5766 16.3109 54.7077 16.2447 54.0329 16.6473C53.2426 17.1187 52.9179 18.1248 53.2657 18.9723Z" fill="#002964"/>
</svg>
