<svg width="381" height="760" viewBox="0 0 381 760" fill="none" xmlns="http://www.w3.org/2000/svg">
<path d="M209.622 362.487L69.0655 264.162L67.8766 399.455L209.622 362.487Z" stroke="#D5D5D5" stroke-width="5"/>
<path d="M243.778 157.309L220.844 356.008L76.5746 253.844L243.778 157.309Z" stroke="#D5D5D5" stroke-width="5"/>
<path d="M216.746 374.825L73.7052 409.55L203.425 491.697L216.746 374.825Z" stroke="#D5D5D5" stroke-width="5"/>
<path d="M338.091 452.833L230.256 377.494L216.288 493.244L338.091 452.833Z" stroke="#D5D5D5" stroke-width="5"/>
<path d="M232.411 355.311L255 150.83L443.38 233.509L232.411 355.311Z" stroke="#D5D5D5" stroke-width="5"/>
<path d="M434.547 47.1688L266.221 144.352L450.241 222.069L434.547 47.1688Z" stroke="#D5D5D5" stroke-width="5"/>
<path d="M351.73 447.95L237.766 367.177L452.575 241.661L465.07 382.513L351.73 447.95Z" stroke="#D5D5D5" stroke-width="5"/>
<path d="M461.636 218.482L446.762 47.5943L564.35 111.32L461.636 218.482Z" stroke="#D5D5D5" stroke-width="5"/>
<path d="M570.827 122.537L466.99 230.347L577.108 275.951L570.827 122.537Z" stroke="#D5D5D5" stroke-width="5"/>
<path d="M573.786 288.338L462.373 240.491L475.644 374.913L573.786 288.338Z" stroke="#D5D5D5" stroke-width="5"/>
<path d="M350.826 461.933L233.037 501.521L467.035 541.41L350.826 461.933Z" stroke="#D5D5D5" stroke-width="5"/>
<path d="M465.287 395.848L362.048 455.454L479.552 537.175L465.287 395.848Z" stroke="#D5D5D5" stroke-width="5"/>
<path d="M477.631 388.722L488.356 529.1L572.882 302.321L477.631 388.722Z" stroke="#D5D5D5" stroke-width="5"/>
<path d="M620.398 553.073L582.205 302.92L495.48 541.439L620.398 553.073Z" stroke="#D5D5D5" stroke-width="5"/>
<path d="M421.774 667.748L474.159 553.749L229.068 512.787L421.774 667.748Z" stroke="#D5D5D5" stroke-width="5"/>
</svg>
