<svg width="354" height="795" viewBox="0 0 354 795" fill="none" xmlns="http://www.w3.org/2000/svg">
<path d="M220.44 426.596L59.2247 368L93.0925 498.99L220.44 426.596Z" stroke="#D5D5D5" stroke-width="5"/>
<path d="M200.328 219.57L229.602 417.433L63.8074 356.091L200.328 219.57Z" stroke="#D5D5D5" stroke-width="5"/>
<path d="M230.515 436.67L101.335 507.233L247.896 553.007L230.515 436.67Z" stroke="#D5D5D5" stroke-width="5"/>
<path d="M367.915 480.614L244.256 435.752L260.722 551.172L367.915 480.614Z" stroke="#D5D5D5" stroke-width="5"/>
<path d="M240.596 413.767L209.491 210.407L412.851 241.512L240.596 413.767Z" stroke="#D5D5D5" stroke-width="5"/>
<path d="M356.091 63.8073L218.653 201.245L416.517 228.686L356.091 63.8073Z" stroke="#D5D5D5" stroke-width="5"/>
<path d="M379.826 472.367L248.838 423.842L423.842 247.006L472.367 379.826L379.826 472.367Z" stroke="#D5D5D5" stroke-width="5"/>
<path d="M426.595 222.272L368 61.0567L498.075 92.1766L426.595 222.272Z" stroke="#D5D5D5" stroke-width="5"/>
<path d="M507.233 101.335L434.838 232.347L553.007 247.896L507.233 101.335Z" stroke="#D5D5D5" stroke-width="5"/>
<path d="M553.004 260.721L433.004 243.34L480.613 369.747L553.004 260.721Z" stroke="#D5D5D5" stroke-width="5"/>
<path d="M382.571 486.107L279.042 554.833L515.391 532.799L382.571 486.107Z" stroke="#D5D5D5" stroke-width="5"/>
<path d="M476.028 392.65L391.734 476.945L526.385 525.469L476.028 392.65Z" stroke="#D5D5D5" stroke-width="5"/>
<path d="M486.107 382.571L532.799 515.391L555.75 274.461L486.107 382.571Z" stroke="#D5D5D5" stroke-width="5"/>
<path d="M666.547 504.371L564.911 272.627L542.874 525.465L666.547 504.371Z" stroke="#D5D5D5" stroke-width="5"/>
<path d="M504.371 666.547L525.465 542.874L278.124 566.742L504.371 666.547Z" stroke="#D5D5D5" stroke-width="5"/>
</svg>
