<svg width="80" height="88" viewBox="0 0 80 88" fill="none" xmlns="http://www.w3.org/2000/svg">
<path d="M1.44122 34.7053C2.11261 34.0339 3.20092 34.0339 3.87231 34.7053L10.6942 41.5279C11.0863 41.9193 11.2656 42.4766 11.1749 43.0238C10.6862 45.9765 11.6456 48.9904 13.741 51.0857L18.9778 56.3225L21.2001 54.0996C21.8714 53.4289 22.9598 53.4289 23.6311 54.0996C24.3025 54.771 24.3025 55.8593 23.6311 56.5307L20.2084 59.9534C20.2031 59.9588 20.1984 59.9635 20.1937 59.9682C20.1883 59.9735 20.1836 59.9782 20.1789 59.9829L17.0898 63.072C16.538 63.6232 16.6353 64.9498 17.6572 65.971C18.6783 66.9922 20.005 67.0902 20.5555 66.5383C21.2269 65.8676 22.3152 65.8676 22.9866 66.5383C23.3223 66.874 23.4901 67.3138 23.4901 67.7535C23.4901 68.194 23.3223 68.6337 22.9866 68.9694C22.4354 69.5206 22.5328 70.8466 23.5539 71.8678C24.5758 72.8889 25.9018 72.9863 26.453 72.4351C27.1243 71.7644 28.212 71.7644 28.8834 72.4351C29.2191 72.7708 29.3869 73.2105 29.3869 73.651C29.3869 74.0907 29.2191 74.5305 28.8834 74.8662C28.3322 75.4174 28.4295 76.7434 29.4514 77.7645C29.9515 78.2647 30.5887 78.589 31.1996 78.6541C31.4796 78.6843 32.0006 78.6816 32.3497 78.3325C33.0211 77.6611 34.1088 77.6611 34.7808 78.3325C35.1165 78.6682 35.2844 79.108 35.2844 79.5477C35.2844 79.9875 35.1165 80.4272 34.7808 80.7629C34.2296 81.3141 34.327 82.6401 35.3481 83.662C35.8483 84.1622 36.4855 84.4858 37.0964 84.5509C37.3764 84.5811 37.8974 84.5791 38.2472 84.2293L40.2324 82.244C39.649 81.3162 39.3348 80.2393 39.3348 79.112C39.3348 77.5363 39.9458 76.0572 41.0542 74.9481C41.925 74.0773 43.0241 73.514 44.2191 73.3119C43.8156 71.4233 44.346 69.3736 45.8103 67.91C46.9349 66.7854 48.4039 66.212 49.8802 66.1885C49.8796 66.1489 49.8789 66.1086 49.8789 66.0684C49.8789 64.4919 50.4899 63.0129 51.599 61.9038C52.6564 60.8463 54.0193 60.2757 55.4071 60.1924C55.2956 58.5536 55.865 56.8764 57.1151 55.6263C59.4112 53.3309 63.1468 53.3309 65.4429 55.6263L66.1096 56.2937L67.1979 55.202C69.2933 53.1073 70.252 50.0934 69.7639 47.1407C69.7613 47.1246 69.7606 47.1085 69.7586 47.0924C69.7539 47.0595 69.7498 47.0272 69.7472 46.9943C69.7451 46.9668 69.7438 46.94 69.7431 46.9124C69.7425 46.8849 69.7418 46.8574 69.7418 46.8292C69.7425 46.799 69.7445 46.7687 69.7465 46.7385C69.7478 46.7137 69.7498 46.6895 69.7532 46.6647C69.7566 46.6338 69.7613 46.6036 69.766 46.5727C69.77 46.5479 69.7747 46.523 69.7801 46.4982C69.7861 46.47 69.7935 46.4418 69.8009 46.4136C69.8083 46.3867 69.8156 46.3605 69.8244 46.3344C69.8324 46.3088 69.8412 46.284 69.8499 46.2598C69.8606 46.231 69.872 46.2028 69.8841 46.1746C69.8935 46.1531 69.9036 46.1316 69.9143 46.1101C69.9284 46.0813 69.9432 46.0524 69.9586 46.0242C69.9701 46.0034 69.9821 45.9832 69.9949 45.9631C70.011 45.9362 70.0278 45.91 70.0459 45.8839C70.0607 45.8624 70.0768 45.8409 70.0929 45.8201C70.1104 45.7979 70.1272 45.7751 70.146 45.7529C70.1661 45.7288 70.1876 45.7059 70.2091 45.6831C70.2212 45.6704 70.2312 45.6569 70.244 45.6449L72.2044 43.6844C72.8758 43.013 73.9641 43.013 74.6355 43.6844C75.3069 44.3551 75.3062 45.4434 74.6355 46.1148L73.2699 47.4804C73.619 51.2301 72.2924 54.969 69.6303 57.6317L68.5407 58.7241L69.6538 59.8379C71.95 62.1334 71.95 65.8696 69.6538 68.1658C68.5058 69.3132 66.9978 69.8872 65.4899 69.8872H65.4819C65.4845 71.4012 64.9065 72.9131 63.7571 74.0625C62.6197 75.1998 61.1286 75.7732 59.6334 75.784C59.6502 77.3187 59.0728 78.8555 57.9147 80.0137C56.6209 81.3074 54.8659 81.8714 53.1727 81.7069C53.0572 83.0926 52.4637 84.3777 51.4741 85.3673C50.326 86.5154 48.8181 87.0894 47.3102 87.0894C45.8023 87.0894 44.2943 86.5154 43.1463 85.3673L42.5581 84.7798L40.6776 86.6597C39.8115 87.5265 38.607 88.0005 37.3086 88.0005C37.1186 88.0005 36.9259 87.9897 36.7325 87.9696C35.3334 87.8205 33.9785 87.1538 32.9177 86.0924C31.7676 84.943 31.1305 83.4968 31.0284 82.0896C30.9647 82.0849 30.9002 82.0795 30.8358 82.0721C29.4366 81.9231 28.0817 81.2571 27.0203 80.1956C25.8695 79.0449 25.2317 77.596 25.1317 76.1875C23.7231 76.0874 22.2743 75.4496 21.1235 74.2988C19.9728 73.1474 19.335 71.6992 19.2342 70.2907C17.8264 70.1907 16.3775 69.5522 15.2268 68.4021C12.9306 66.1059 12.6762 62.6242 14.6594 60.6416L16.5474 58.753L11.3106 53.5162C8.64585 50.8521 7.31852 47.1118 7.66764 43.3621L1.44189 37.1364C0.769844 36.465 0.769844 35.3767 1.44122 34.7053ZM63.7564 65.7347C63.7577 65.736 63.7591 65.7374 63.7604 65.738C64.7165 66.6901 66.2687 66.6887 67.2228 65.7347C68.1788 64.7786 68.1788 63.2237 67.2228 62.2683L63.0118 58.0574C62.5338 57.5794 61.9061 57.3404 61.2783 57.3404C60.6513 57.3404 60.0235 57.5794 59.5455 58.0574C58.5894 59.0128 58.5894 60.5684 59.5455 61.5238L63.7524 65.7306C63.7537 65.732 63.7551 65.7333 63.7564 65.7347ZM57.8623 71.6341C58.8184 72.5868 60.372 72.5855 61.326 71.6314C62.2478 70.7103 62.2874 69.2292 61.4173 68.2618C61.3891 68.2302 61.3602 68.1993 61.33 68.1691L57.4957 64.3348C56.5397 63.3788 54.9848 63.3788 54.0294 64.3348C53.5695 64.7941 53.3164 65.4097 53.3164 66.0677C53.3164 66.7256 53.5695 67.3413 54.0294 67.8005L57.8617 71.6328C57.8617 71.6335 57.8623 71.6341 57.8623 71.6341ZM52.0253 77.5913C52.9814 78.538 54.5323 78.5339 55.4836 77.5833C56.3933 76.6729 56.4417 75.2019 55.593 74.2337C55.5575 74.1941 55.5212 74.1545 55.4836 74.1169L55.4292 74.0625C55.4259 74.0592 55.4225 74.0558 55.4192 74.0524L51.7071 70.3404C50.7517 69.3843 49.1968 69.3843 48.2414 70.3404C47.2853 71.2957 47.2853 72.8513 48.2414 73.8067L49.3821 74.9481L51.4741 77.0394L52.0105 77.5765C52.0152 77.5812 52.0206 77.5859 52.0253 77.5913ZM49.043 82.9362C49.9984 81.9808 49.9984 80.4259 49.043 79.4705L46.951 77.3785C46.4911 76.9186 45.8761 76.6661 45.2181 76.6661C44.5602 76.6661 43.9445 76.9193 43.4853 77.3785C43.0254 77.8384 42.7723 78.454 42.7723 79.112C42.7723 79.77 43.0254 80.3856 43.4853 80.8448L45.5767 82.9362C46.532 83.8923 48.087 83.8923 49.043 82.9362Z" fill="#032C66"/>
<path d="M57.6386 30.967C57.7024 31.6343 57.6507 32.3145 57.4801 32.9818C56.7611 35.7882 54.1514 37.4344 50.6642 37.278L43.2159 36.945L33.3533 46.8076C33.0176 47.1433 32.5778 47.3112 32.1381 47.3112C31.6983 47.3112 31.2586 47.1433 30.9229 46.8076C30.2515 46.1369 30.2515 45.0486 30.9229 44.3772L41.3213 33.9788C41.6623 33.6378 42.1309 33.4572 42.613 33.4773L50.8187 33.8445C51.49 33.8741 53.7123 33.8392 54.1501 32.1292C54.3112 31.4994 54.2152 30.8408 53.8795 30.2748C53.5445 29.7088 53.0127 29.308 52.383 29.1475C42.1283 26.5224 34.1959 24.8829 25.4779 27.7034C24.863 27.9021 24.1896 27.7396 23.733 27.2831L17.514 21.0634C16.8426 20.392 16.8426 19.3037 17.514 18.633C18.1847 17.9616 19.273 17.9616 19.9444 18.633L25.4336 24.1222C34.6195 21.4635 43.1367 23.2326 53.235 25.8168C54.3777 26.1095 55.3841 26.7252 56.1548 27.5893L60.9942 22.7499C61.6649 22.0785 62.7532 22.0785 63.4246 22.7499C64.0959 23.4213 64.0959 24.5096 63.4246 25.181L57.6386 30.967Z" fill="#032C66"/>
<path d="M41.6843 19.4964C41.3486 19.8321 40.9088 19.9999 40.4684 19.9999C40.0286 19.9999 39.5889 19.8321 39.2532 19.4964L31.7491 11.9923C30.4224 10.6656 29.6913 8.90125 29.6913 7.02539C29.6913 5.14886 30.4224 3.38446 31.7491 2.0578C33.0757 0.730469 34.8401 0 36.7167 0C38.0655 0 39.3566 0.377991 40.4691 1.08295C41.5809 0.377319 42.8719 0 44.2208 0C46.0973 0 47.8617 0.730469 49.1884 2.0578C51.9276 4.79639 51.9276 9.25372 49.1884 11.9923L41.6843 19.4964ZM46.7579 4.48822C46.0583 3.78864 45.1399 3.43884 44.2208 3.43884C43.3023 3.43884 42.3839 3.78864 41.6843 4.48822C41.362 4.81049 40.9243 4.99176 40.4684 4.99176C40.0132 4.99176 39.5754 4.81049 39.2532 4.48822C38.5757 3.81079 37.6747 3.4375 36.7167 3.4375C35.7586 3.4375 34.8576 3.81079 34.1795 4.48822C32.781 5.88739 32.781 8.16272 34.1795 9.56189L40.4684 15.8508L46.7573 9.56189C48.1564 8.16272 48.1564 5.88739 46.7579 4.48822Z" fill="#032C66"/>
<path d="M28.4326 49.1823C29.1349 49.8208 29.1866 50.9084 28.5481 51.6107C28.2084 51.9833 27.7431 52.1727 27.2758 52.1727C26.8629 52.1727 26.4494 52.0256 26.1204 51.7262C25.4175 51.0877 25.3658 50 26.0042 49.2978L26.0056 49.2971C26.6434 48.5948 27.7304 48.5438 28.4326 49.1823Z" fill="#032C66"/>
<path d="M77.0658 38.8223C77.7372 38.1509 78.8248 38.1516 79.4962 38.823C80.1676 39.4944 80.1669 40.5827 79.4962 41.2541C79.1605 41.5898 78.7208 41.7576 78.281 41.7576C77.8406 41.7576 77.4008 41.5898 77.0651 41.2541C76.3944 40.5827 76.3944 39.4944 77.0651 38.823L77.0658 38.8223Z" fill="#032C66"/>
</svg>
