<svg width="98" height="97" viewBox="0 0 98 97" fill="none" xmlns="http://www.w3.org/2000/svg">
<path d="M45.1491 32.1974V40.5818C42.2469 41.388 40.3117 43.8067 40.3117 46.871V49.4503L33.7004 56.0616C32.7327 57.0293 32.2493 58.1583 32.2493 59.448V70.0904C32.2493 71.058 32.5721 72.0249 33.0556 72.8311L38.6992 81.2163V83.9578H35.4743V96.8575H38.6992V93.6326H49.9865V90.4077H38.6992V87.1827H59.6613V96.8575H62.8862V83.9578H59.6613V81.3777L61.4352 79.6038C62.4028 78.6362 62.8862 77.5079 62.8862 76.2175V71.7029L65.1435 69.4456C66.9174 67.6717 67.0788 64.9302 65.4663 62.9957L53.2114 47.8379V46.871C53.2114 43.9681 51.2761 41.388 48.374 40.5818V32.1974C57.2426 31.2298 63.6925 23.3288 62.7248 14.6217C61.7572 5.91371 54.0176 -0.696776 45.1491 0.109458C36.2805 0.915692 29.8306 8.97803 30.7983 17.8466C31.4431 25.4247 37.5702 31.5526 45.1491 32.1974ZM62.8862 67.1875L61.2737 68.8L58.855 66.3813L62.08 63.9626L62.8862 64.9302C63.531 65.575 63.531 66.5427 62.8862 67.1875ZM54.0176 61.5439L57.8874 58.6417L60.1447 61.3832L56.5977 63.9626L54.0176 61.5439ZM55.7915 56.223L53.2114 58.1583V52.9981L55.7915 56.223ZM49.9865 46.871V62.0281L59.6613 71.7029V76.2175C59.6613 76.7017 59.4999 77.0237 59.1779 77.3465L56.4363 80.0872V83.9578H41.9241V80.2486L35.7971 71.058C35.6357 70.7352 35.4743 70.4124 35.4743 70.0904V59.448C35.4743 58.9645 35.6357 58.6417 35.9577 58.3189L40.3117 53.9657V60.0928C40.3117 60.577 40.1503 60.899 39.8282 61.2218L37.5702 63.4791L39.8282 65.7364L42.0855 63.4791C43.0532 62.5115 43.5366 61.3832 43.5366 60.0928V46.871C43.5366 45.0972 44.9877 43.6461 46.7615 43.6461C48.5354 43.6461 49.9865 45.0972 49.9865 46.871ZM46.7615 3.33439C53.8562 3.33439 59.6613 9.13865 59.6613 16.2341C59.6613 23.3288 53.8562 29.1339 46.7615 29.1339C39.6668 29.1339 33.8618 23.3288 33.8618 16.2341C33.8618 9.13865 39.6668 3.33439 46.7615 3.33439Z" fill="#032C66"/>
<path d="M85.9442 30.2621L88.2023 28.0048L84.4931 24.2965L88.2023 20.5873L85.9442 18.33L82.2359 22.0384L78.5275 18.33L76.2694 20.5873L79.9786 24.2965L76.2694 28.0048L78.5275 30.2621L82.2359 26.5538L85.9442 30.2621Z" fill="#032C66"/>
<path d="M53.2113 90.4077H56.4362V93.6326H53.2113V90.4077Z" fill="#032C66"/>
<path d="M87.0732 52.6753V50.096C87.0732 47.9993 85.7835 46.2254 83.8483 45.5806V37.0348C90.943 36.0672 95.9418 29.6173 94.9741 22.684C94.0065 15.5885 87.5566 10.5905 80.6233 11.5574C73.5286 12.525 68.5298 18.9749 69.4975 25.909C70.3037 31.7132 74.8183 36.39 80.6233 37.0348V45.5806C78.6881 46.2254 77.3984 47.9993 77.3984 50.096V52.5147L71.1099 57.8355C69.9809 58.6417 69.3361 59.9314 69.3361 61.3833V68.8C69.3361 69.929 69.8195 71.0581 70.4651 72.0249L75.7859 78.1528V80.7329H72.561V96.8575H75.7859V90.4077H88.6857V87.1827H75.7859V83.9578H91.9106V96.8575H95.1355V80.7329H91.9106V78.3142L94.6521 76.5403C95.9418 75.5727 96.748 74.1216 96.748 72.5091V69.6062L97.7156 66.8655C98.3605 65.0916 97.877 63.1563 96.5866 61.8667L87.0732 52.6753ZM94.6521 66.0592L94.3293 67.0269L91.2658 64.9302L92.394 62.5115L94.1679 64.2854C94.6521 64.7688 94.8127 65.4144 94.6521 66.0592ZM89.9753 60.0928L88.5243 62.9957L87.0732 62.1895V57.1907L89.9753 60.0928ZM72.561 24.2965C72.561 18.9749 76.915 14.6217 82.2358 14.6217C87.5566 14.6217 91.9106 18.9749 91.9106 24.2965C91.9106 29.6173 87.5566 33.9713 82.2358 33.9713C76.915 33.9713 72.561 29.6173 72.561 24.2965ZM93.5231 72.5091C93.5231 72.9925 93.2003 73.4768 92.8782 73.7988L88.6857 76.7017V80.7329H79.0109V76.8623L72.8838 69.929C72.561 69.6062 72.561 69.2842 72.561 68.8V61.3833C72.561 60.899 72.7224 60.4156 73.2058 60.0928L77.3984 56.5458V61.5439C77.3984 62.0281 77.237 62.3501 76.915 62.6729L74.6569 64.9302L76.915 67.1875L79.1723 64.9302C80.1399 63.9626 80.6233 62.8343 80.6233 61.5439V50.096C80.6233 49.1283 81.2682 48.4835 82.2358 48.4835C83.2034 48.4835 83.8483 49.1283 83.8483 50.096V63.802L93.5231 70.2518V72.5091Z" fill="#032C66"/>
<path d="M54.3405 10.9125L52.0824 8.65521L41.9242 18.8134L39.8283 16.7176L37.5702 18.9749L41.9242 23.3288L54.3405 10.9125Z" fill="#032C66"/>
<path d="M16.608 30.2621L18.8661 28.0048L15.157 24.2965L18.8661 20.5873L16.608 18.33L12.8997 22.0384L9.19131 18.33L6.93323 20.5873L10.6424 24.2965L6.93323 28.0048L9.19131 30.2621L12.8997 26.5538L16.608 30.2621Z" fill="#032C66"/>
<path d="M6.44987 78.1527V80.7328H3.22494V96.8575H6.44987V90.4077H19.3496V87.1827H6.44987V83.9578H22.5746V96.8575H25.7995V80.7328H22.5746V78.3141L25.3161 76.5403C26.6057 75.5726 27.412 74.1216 27.412 72.5091V69.6062L28.3796 66.8655C29.0244 65.0916 28.541 63.1563 27.2506 61.8667L17.7371 52.6753V50.096C17.7371 47.9993 16.4475 46.2254 14.5122 45.5806V37.0348C21.6069 36.0672 26.6057 29.6173 25.6381 22.684C24.6704 15.7499 18.382 10.5905 11.2873 11.5573C4.19257 12.3636 -0.806234 18.8135 0.161404 25.9089C0.967638 31.7132 5.48223 36.39 11.2873 37.0348V45.5806C9.352 46.2254 8.06234 47.9993 8.06234 50.096V52.5147L1.77387 57.8355C0.64483 58.6417 0 59.9314 0 61.3832V68.8C0 69.929 0.483426 71.058 1.12904 72.0249L6.44987 78.1527ZM25.3161 66.0592L24.9933 67.0269L21.9297 64.9302L23.058 62.5115L24.8319 64.2854C25.3161 64.7688 25.4767 65.4144 25.3161 66.0592ZM20.6393 60.0928L19.1882 62.9957L17.7371 62.1895V57.1907L20.6393 60.0928ZM3.22494 24.2965C3.22494 18.9749 7.57891 14.6217 12.8997 14.6217C18.2206 14.6217 22.5746 18.9749 22.5746 24.2965C22.5746 29.6173 18.2206 33.9713 12.8997 33.9713C7.57891 33.9713 3.22494 29.6173 3.22494 24.2965ZM3.22494 61.3832C3.22494 60.899 3.38634 60.4156 3.86977 60.0928L8.06234 56.7064V61.7053C8.06234 62.1895 7.90094 62.5115 7.57891 62.8343L5.32083 65.0916L7.57891 67.3489L9.83621 65.0916C10.8039 64.124 11.2873 62.9957 11.2873 61.7053V50.096C11.2873 49.1283 11.9321 48.4835 12.8997 48.4835C13.8674 48.4835 14.5122 49.1283 14.5122 50.096V63.8019L24.187 70.2518V72.5091C24.187 72.9925 23.8642 73.4767 23.5422 73.7988L19.3496 76.7017V80.7328H9.67481V76.8623L3.54774 69.929C3.38634 69.6062 3.22494 69.2842 3.22494 68.8V61.3832Z" fill="#032C66"/>
</svg>
