<svg width="16" height="16" viewBox="0 0 16 16" fill="none" xmlns="http://www.w3.org/2000/svg">
<path d="M8 4C7.20887 4 6.43552 4.2346 5.77772 4.67412C5.11992 5.11365 4.60723 5.73836 4.30448 6.46927C4.00173 7.20017 3.92252 8.00444 4.07686 8.78036C4.2312 9.55628 4.61216 10.269 5.17157 10.8284C5.73098 11.3878 6.44372 11.7688 7.21964 11.9231C7.99556 12.0775 8.79983 11.9983 9.53073 11.6955C10.2616 11.3928 10.8864 10.8801 11.3259 10.2223C11.7654 9.56448 12 8.79113 12 8C12 6.93913 11.5786 5.92172 10.8284 5.17157C10.0783 4.42143 9.06087 4 8 4ZM8 10.4C7.52532 10.4 7.06131 10.2592 6.66663 9.99553C6.27195 9.73181 5.96434 9.35698 5.78269 8.91844C5.60104 8.4799 5.55351 7.99734 5.64612 7.53178C5.73872 7.06623 5.9673 6.63859 6.30294 6.30294C6.63859 5.9673 7.06623 5.73872 7.53178 5.64612C7.99734 5.55351 8.4799 5.60104 8.91844 5.78269C9.35698 5.96434 9.73181 6.27195 9.99553 6.66663C10.2592 7.06131 10.4 7.52532 10.4 8C10.4 8.63652 10.1471 9.24697 9.69706 9.69706C9.24697 10.1471 8.63652 10.4 8 10.4ZM12 3.2C11.8418 3.2 11.6871 3.24692 11.5555 3.33482C11.424 3.42273 11.3214 3.54767 11.2609 3.69385C11.2003 3.84003 11.1845 4.00089 11.2154 4.15607C11.2462 4.31126 11.3224 4.4538 11.4343 4.56569C11.5462 4.67757 11.6887 4.75376 11.8439 4.78463C11.9991 4.8155 12.16 4.79965 12.3061 4.7391C12.4523 4.67855 12.5773 4.57602 12.6652 4.44446C12.7531 4.3129 12.8 4.15823 12.8 4C12.8 3.78783 12.7157 3.58434 12.5657 3.43431C12.4157 3.28429 12.2122 3.2 12 3.2ZM15.952 4.992C15.9387 4.30834 15.8089 3.63196 15.568 2.992C15.3446 2.40965 15.0013 1.88079 14.5602 1.43976C14.1192 0.998723 13.5903 0.655373 13.008 0.432C12.368 0.191119 11.6917 0.0612541 11.008 0.048C10.232 -4.47035e-08 9.976 0 8 0C6.024 0 5.768 -4.47035e-08 4.992 0.048C4.30834 0.0612541 3.63196 0.191119 2.992 0.432C2.40965 0.655373 1.88079 0.998723 1.43976 1.43976C0.998723 1.88079 0.655373 2.40965 0.432 2.992C0.191119 3.63196 0.0612541 4.30834 0.048 4.992C-4.47035e-08 5.776 0 6.032 0 8C0 9.968 -4.47035e-08 10.224 0.048 11.008C0.0612541 11.6917 0.191119 12.368 0.432 13.008C0.655373 13.5903 0.998723 14.1192 1.43976 14.5602C1.88079 15.0013 2.40965 15.3446 2.992 15.568C3.63196 15.8089 4.30834 15.9387 4.992 15.952C5.792 15.952 6.024 16 8 16C9.976 16 10.232 16 11.008 15.952C11.6917 15.9387 12.368 15.8089 13.008 15.568C13.5903 15.3446 14.1192 15.0013 14.5602 14.5602C15.0013 14.1192 15.3446 13.5903 15.568 13.008C15.8089 12.368 15.9387 11.6917 15.952 11.008C15.952 10.208 16 9.968 16 8C16 6.032 16 5.776 15.952 4.992ZM14.352 10.936C14.338 11.4437 14.2435 11.9459 14.072 12.424C13.9302 12.8019 13.7061 13.1435 13.416 13.424C13.1371 13.7143 12.7949 13.9361 12.416 14.072C11.9368 14.2505 11.4312 14.3478 10.92 14.36C10.168 14.36 9.936 14.4 7.992 14.4C6.048 14.4 5.824 14.4 5.072 14.4C4.56162 14.3868 4.0566 14.2923 3.576 14.12C3.19813 13.9782 2.85654 13.7541 2.576 13.464C2.28572 13.1851 2.06394 12.8429 1.928 12.464C1.75024 11.9874 1.65292 11.4845 1.64 10.976C1.64 10.176 1.64 9.976 1.64 8.04C1.64 6.104 1.64 5.872 1.64 5.104C1.65379 4.59297 1.75107 4.08763 1.928 3.608C2.06605 3.23251 2.28763 2.8933 2.576 2.616C2.85486 2.32572 3.19713 2.10394 3.576 1.968C4.05519 1.78952 4.56079 1.69218 5.072 1.68C5.824 1.6 6.056 1.6 8 1.6C9.944 1.6 10.176 1.6 10.928 1.6C11.4417 1.61306 11.9498 1.71036 12.432 1.888C12.8075 2.02605 13.1467 2.24763 13.424 2.536C13.7143 2.81486 13.9361 3.15713 14.072 3.536C14.2678 4.02285 14.3788 4.53967 14.4 5.064C14.4 5.864 14.44 6.064 14.44 8C14.44 9.936 14.4 10.168 14.4 10.936H14.352Z" fill="#032C66"/>
</svg>
