<svg width="103" height="103" viewBox="0 0 103 103" fill="none" xmlns="http://www.w3.org/2000/svg">
<g clip-path="url(#clip0)">
<path d="M91.5955 13.9379L87.2112 10.0773L91.5955 6.21743C92.2773 5.61626 92.5106 4.67928 92.1904 3.82918C91.8687 2.97831 91.0742 2.4288 90.1654 2.4288H72.0223V1.64916C72.0223 0.818633 71.3491 0.145447 70.5186 0.145447C69.688 0.145447 69.0149 0.818633 69.0149 1.64916V21.9293L56.665 28.6353C56.5969 28.0921 56.4341 27.5582 56.1766 27.0557L54.4365 23.6584C53.242 21.3258 50.3723 20.4013 48.0412 21.595L46.6956 22.2839C45.5653 22.8631 44.7285 23.8463 44.3387 25.0549C43.9489 26.2627 44.053 27.5504 44.6322 28.6799L46.3723 32.0779C46.7786 32.8709 47.379 33.4987 48.085 33.9386C47.1614 35.1824 46.723 36.712 46.2721 38.301L45.9481 39.4485C45.7218 40.2478 46.1868 41.0791 46.986 41.3045C47.1222 41.3436 47.26 41.3616 47.3954 41.3616C48.0514 41.3616 48.6541 40.9296 48.842 40.2665L49.166 39.1213C49.8251 36.7973 50.2298 35.5527 51.5183 34.8529L53.8283 33.5981L54.1132 33.4525C54.2079 33.404 54.2963 33.3492 54.3864 33.2952L70.8497 24.3551C70.7456 26.413 69.6379 28.3574 67.8141 29.465L57.1081 35.9699C57.0956 35.9769 57.083 35.984 57.0713 35.9918L53.739 38.0161C53.0298 38.4474 52.8036 39.3726 53.2349 40.0826C53.6412 40.7519 54.4866 40.9898 55.1762 40.654L52.6478 48.297L50.7997 49.0547L45.7743 51.1142L47.2224 45.9949C47.4479 45.1957 46.9837 44.3644 46.1845 44.1381C45.3845 43.9111 44.5539 44.3769 44.3277 45.1761L42.0397 53.2676C42.0099 53.3717 41.9904 53.486 41.9857 53.5948L41.3868 64.5944C41.3688 65.014 41.4581 65.8069 41.2639 66.2163L34.6135 80.2076H29.7806C26.9494 80.2076 24.6464 82.5105 24.6464 85.341V89.6815C23.9983 89.3848 23.2789 89.2189 22.5204 89.2189H10.2473C7.41679 89.2189 5.11386 91.521 5.11386 94.3523V99.7378H1.50371C0.673186 99.7378 0 100.411 0 101.242C0 102.072 0.673186 102.745 1.50371 102.745H90.1638C90.9944 102.745 91.6676 102.072 91.6676 101.242C91.6676 100.411 90.9944 99.7378 90.1638 99.7378H86.2531V60.9788C86.2531 58.1482 83.9502 55.8453 81.1197 55.8453H72.0223V29.6122C73.6896 27.3523 74.3072 24.3903 73.533 21.5755C73.4117 21.1332 73.0947 20.77 72.672 20.5907C72.4645 20.5023 72.2422 20.4631 72.0223 20.4717V17.7266H90.1646C91.0742 17.7266 91.8687 17.177 92.1897 16.327C92.5106 15.4769 92.2773 14.5391 91.5955 13.9379ZM47.2013 25.9786C47.3445 25.5347 47.6514 25.1731 48.0662 24.961L49.4118 24.2721C49.6655 24.1422 49.9363 24.0803 50.204 24.0803C50.8381 24.0803 51.451 24.4271 51.7594 25.0291L53.5003 28.4271C53.9065 29.2208 53.6435 30.1828 52.921 30.6689L52.431 30.9343L51.397 31.4642C50.5414 31.9026 49.4878 31.5629 49.0494 30.7065L47.3085 27.3093C47.0964 26.8944 47.058 26.4216 47.2013 25.9786ZM44.1798 80.6702C43.6686 80.437 43.1129 80.2843 42.5289 80.2303L44.1798 78.0378V80.6702ZM51.3195 68.5537C52.0427 67.6871 52.2423 66.675 52.4036 65.8594C52.4443 65.6652 53.1864 61.612 53.1864 61.612C53.1864 61.612 53.8885 62.0496 53.9621 62.0809C54.013 62.1036 54.049 62.1537 54.0545 62.2124L54.8725 70.5278H49.833L51.3195 68.5537ZM60.2118 60.2539L58.9421 70.5208H57.894L57.0478 61.9181C56.9398 60.8159 56.265 59.8539 55.2764 59.3756L53.7641 58.4167L54.7715 52.8332C54.7715 52.8332 59.0157 57.875 59.1143 58.0034C59.9926 59.1455 60.2932 59.6026 60.2118 60.2539ZM43.9692 67.5314C44.2729 66.6171 44.4138 65.6864 44.3903 64.74L44.9367 54.7079L51.8917 51.8579L50.6275 58.8606C50.6236 58.8793 50.6197 58.8989 50.6173 58.9177L49.5715 64.7079C49.4353 65.3075 49.3163 66.2171 48.9422 66.711L38.781 80.2076H37.9434L43.9692 67.5314ZM8.12128 94.3515C8.12128 93.1797 9.0747 92.2263 10.2473 92.2263H22.5204C23.693 92.2263 24.6472 93.1797 24.6472 94.3515V99.7378H8.12128V94.3515ZM27.6538 94.3515V85.341C27.6538 84.1684 28.608 83.215 29.7806 83.215H42.0538C43.2264 83.215 44.1798 84.1684 44.1798 85.341V99.7378H27.6546V94.3515H27.6538ZM83.2457 60.9788V99.7378H66.7205V90.7218C66.7205 89.8913 66.0474 89.2181 65.2168 89.2181C64.3855 89.2181 63.7123 89.8913 63.7123 90.7218V99.7378H47.1872V75.6605C47.1872 74.4887 48.1406 73.5352 49.3132 73.5352H61.5863C62.7589 73.5352 63.7123 74.4887 63.7123 75.6605V83.1986C63.7123 84.0291 64.3855 84.7023 65.216 84.7023C66.0474 84.7023 66.7198 84.0291 66.7198 83.1986V60.9788C66.7198 59.8062 67.674 58.8527 68.8466 58.8527H70.5029C70.5076 58.8527 70.5131 58.8535 70.5186 58.8535C70.5233 58.8535 70.5287 58.8527 70.5334 58.8527H81.1189C82.2915 58.8527 83.2457 59.8069 83.2457 60.9788ZM68.8466 55.8453C66.016 55.8453 63.7131 58.1482 63.7131 60.9788V70.9904C63.1746 70.7446 62.5875 70.5889 61.9699 70.5435L63.1965 60.6242C63.4376 58.6907 62.4513 57.4093 61.4979 56.1694C61.3969 56.0379 55.5519 49.0978 55.5519 49.0978L59.1378 38.2564L69.0149 32.2556V55.8453H68.8466ZM72.0223 14.7184V5.437H87.9306L84.5044 8.45381C84.0378 8.86477 83.7701 9.45655 83.7701 10.0781C83.7701 10.6996 84.0378 11.2914 84.5044 11.7023L87.9306 14.7191H72.0223V14.7184Z" fill="#032C66"/>
</g>
<defs>
<clipPath id="clip0">
<rect width="102.6" height="102.6" fill="white" transform="translate(0 0.145447)"/>
</clipPath>
</defs>
</svg>
