<svg width="76" height="94" viewBox="0 0 76 94" fill="none" xmlns="http://www.w3.org/2000/svg">
<path d="M14.1326 30.4766V38.9364C12.2855 39.5797 10.7644 40.9326 9.90943 42.7616L6.28125 50.5408C3.94135 55.5617 5.07137 61.4949 9.09372 65.3047L19.6404 75.2905V92.1641C19.6404 93.178 20.4626 94 21.4764 94H29.7381C30.7519 94 31.574 93.178 31.574 92.1641C31.574 91.1501 30.7519 90.3281 29.7381 90.3281H23.3123V74.5005C23.3123 73.9962 23.1049 73.5141 22.7386 73.1674L11.6187 62.6385C8.74544 59.9171 7.938 55.6787 9.60944 52.0923L13.2365 44.3151C14.1168 42.4322 16.3168 41.6967 18.1174 42.5374L36.2539 50.9937C33.712 54.4264 29.0151 55.7224 24.9972 53.8495L20.0052 51.5215C19.0862 51.0927 17.9938 51.4907 17.5655 52.4094C17.1368 53.3283 17.5344 54.4207 18.4533 54.8494L23.4454 57.1775C25.4918 58.1315 27.7909 58.5561 30.1655 58.3125C34.0395 62.4979 36.1639 67.9066 36.1639 73.6431C36.1639 74.6571 36.986 75.4791 37.9998 75.4791C39.0136 75.4791 39.8358 74.6571 39.8358 73.6431C39.8358 67.6154 37.8179 61.8992 34.1043 57.2623C36.8386 56.046 39.1636 53.878 40.5246 50.9596C40.5253 50.9581 40.5257 50.9566 40.5264 50.9552C41.4384 51.3618 42.4465 51.5898 43.5076 51.5898C45.1468 51.5898 46.6621 51.0497 47.8854 50.1384C49.0645 52.622 51.5962 54.3438 54.5233 54.3438C55.654 54.3438 56.7257 54.0864 57.6833 53.6279C57.1769 56.9238 56.3566 59.929 55.5062 63.0391C54.1205 68.1072 52.6873 73.3479 52.6873 80.0469V90.3281H46.2615C45.2477 90.3281 44.4256 91.1501 44.4256 92.1641C44.4256 93.178 45.2477 94 46.2615 94H54.5233C55.5371 94 56.3592 93.178 56.3592 92.1641V80.0469C56.3592 73.841 57.6653 69.0645 59.0481 64.0078C60.4339 58.9397 61.867 53.699 61.867 47V35.9844C61.867 31.935 58.5726 28.6406 54.5233 28.6406C52.8841 28.6406 51.3688 29.1808 50.1455 30.0921C48.9664 27.6085 46.4347 25.8867 43.5076 25.8867C41.8685 25.8867 40.3531 26.4269 39.1298 27.3382C37.9508 24.8546 35.419 23.1328 32.492 23.1328C30.3003 23.1328 28.3309 24.0993 26.9842 25.6269C25.6375 24.0993 23.6681 23.1328 21.4764 23.1328C17.427 23.1328 14.1326 26.4272 14.1326 30.4766ZM50.8514 35.9844C50.8514 33.9597 52.4986 32.3125 54.5233 32.3125C56.5479 32.3125 58.1951 33.9597 58.1951 35.9844V47C58.1951 49.0247 56.5479 50.6719 54.5233 50.6719C52.4986 50.6719 50.8514 49.0247 50.8514 47V35.9844ZM39.8358 33.2305C39.8358 31.2058 41.483 29.5586 43.5076 29.5586C45.5323 29.5586 47.1795 31.2058 47.1795 33.2305V44.2461C47.1795 46.2708 45.5323 47.918 43.5076 47.918C41.483 47.918 39.8358 46.2708 39.8358 44.2461V33.2305ZM28.8201 30.4766C28.8201 28.4519 30.4673 26.8047 32.492 26.8047C34.5167 26.8047 36.1639 28.4519 36.1639 30.4766V44.2461C36.1639 45.2918 36.3851 46.2866 36.7809 47.188L28.8201 43.4763V30.4766ZM17.8045 30.4766C17.8045 28.4519 19.4517 26.8047 21.4764 26.8047C23.5011 26.8047 25.1483 28.4519 25.1483 30.4766V41.7643L19.67 39.2101C19.0737 38.9316 18.446 38.737 17.8045 38.6268V30.4766Z" fill="#032C66"/>
<path d="M39.8361 8.44531V1.83594C39.8361 0.821949 39.0139 0 38.0001 0C36.9863 0 36.1642 0.821949 36.1642 1.83594V8.44531C36.1642 9.4593 36.9863 10.2812 38.0001 10.2812C39.0139 10.2812 39.8361 9.4593 39.8361 8.44531Z" fill="#032C66"/>
<path d="M22.3942 14.4637C23.2723 13.9568 23.5734 12.8341 23.0665 11.9558L20.3126 7.18416C19.8057 6.30585 18.6828 6.00476 17.8047 6.51166C16.9266 7.01856 16.6255 8.14124 17.1324 9.01955L19.8863 13.7912C20.3916 14.6667 21.5137 14.972 22.3942 14.4637Z" fill="#032C66"/>
<path d="M7.54519 23.3786L2.77358 20.6247C1.89454 20.1176 0.772229 20.4189 0.265694 21.2972C-0.241208 22.1754 0.0598851 23.2982 0.938014 23.8051L5.70962 26.559C6.58407 27.0635 7.70858 26.7687 8.21751 25.8865C8.72441 25.0082 8.42332 23.8855 7.54519 23.3786Z" fill="#032C66"/>
<path d="M56.1134 13.7914L58.8673 9.01977C59.3742 8.14164 59.0731 7.01879 58.195 6.51188C57.3161 6.0048 56.194 6.30626 55.6871 7.18439L52.9332 11.956C52.4263 12.8341 52.7274 13.957 53.6055 14.4639C54.4801 14.9682 55.6043 14.6734 56.1134 13.7914Z" fill="#032C66"/>
<path d="M70.2902 26.5589L75.0618 23.805C75.9399 23.298 76.241 22.1754 75.7341 21.2971C75.227 20.4189 74.1045 20.1175 73.2262 20.6246L68.4546 23.3785C67.5765 23.8854 67.2754 25.008 67.7823 25.8864C68.2875 26.7619 69.4097 27.0672 70.2902 26.5589Z" fill="#032C66"/>
<path d="M38.0001 94C39.0141 94 39.8361 93.178 39.8361 92.1641C39.8361 91.1501 39.0141 90.3281 38.0001 90.3281C36.9862 90.3281 36.1642 91.1501 36.1642 92.1641C36.1642 93.178 36.9862 94 38.0001 94Z" fill="#032C66"/>
</svg>
